<?xml version="1.0" encoding="utf-8"?>
<!-- Generator: Adobe Illustrator 16.0.0, SVG Export Plug-In . SVG Version: 6.00 Build 0)  -->
<!DOCTYPE svg PUBLIC "-//W3C//DTD SVG 1.1//EN" "http://www.w3.org/Graphics/SVG/1.1/DTD/svg11.dtd">
<svg version="1.1" id="Layer_1" xmlns="http://www.w3.org/2000/svg" xmlns:xlink="http://www.w3.org/1999/xlink" x="0px" y="0px"
	 width="200px" height="200px" viewBox="0 0 200 200" enable-background="new 0 0 200 200" xml:space="preserve">
<g>
	<path fill="#BB9B62" d="M140.857,196.5H59.143C28.461,196.5,3.5,171.539,3.5,140.857V59.143C3.5,28.461,28.461,3.5,59.143,3.5
		h81.714c30.682,0,55.643,24.961,55.643,55.643v81.714C196.5,171.539,171.539,196.5,140.857,196.5z M59.143,20.5
		C37.835,20.5,20.5,37.835,20.5,59.143v81.714c0,21.308,17.335,38.643,38.643,38.643h81.714c21.308,0,38.643-17.335,38.643-38.643
		V59.143c0-21.308-17.335-38.643-38.643-38.643H59.143z"/>
</g>
<g>
	<path fill="#BB9B62" d="M100,148.5c-26.743,0-48.5-21.757-48.5-48.5S73.257,51.5,100,51.5s48.5,21.757,48.5,48.5
		S126.743,148.5,100,148.5z M100,68.5c-17.369,0-31.5,14.131-31.5,31.5s14.131,31.5,31.5,31.5s31.5-14.131,31.5-31.5
		S117.369,68.5,100,68.5z"/>
</g>
<g>
	<circle fill="#BB9B62" cx="152" cy="49" r="11"/>
</g>
</svg>
