<?xml version="1.0" encoding="utf-8"?>
<!-- Generator: Adobe Illustrator 16.0.0, SVG Export Plug-In . SVG Version: 6.00 Build 0)  -->
<!DOCTYPE svg PUBLIC "-//W3C//DTD SVG 1.1//EN" "http://www.w3.org/Graphics/SVG/1.1/DTD/svg11.dtd">
<svg version="1.1" id="Layer_1" xmlns="http://www.w3.org/2000/svg" xmlns:xlink="http://www.w3.org/1999/xlink" x="0px" y="0px"
	 width="1024px" height="261px" viewBox="0 0 1024 261" enable-background="new 0 0 1024 261" xml:space="preserve">
<g>
	<path fill="#FFFFFF" d="M154.364,169.137c0,2.438-0.852,4.506-2.547,6.205c-16.469,13.146-35.044,19.717-55.721,19.717
		c-24.445,0-45.325-8.656-62.643-25.978c-17.318-17.317-25.977-38.198-25.977-62.643c0-24.443,8.658-45.323,25.977-62.643
		C50.771,26.479,71.65,17.819,96.096,17.819c21.121,0,39.916,6.755,56.385,20.271c1.699,1.773,2.548,3.877,2.548,6.313
		c0,2.438-0.869,4.526-2.603,6.26c-1.736,1.736-3.822,2.603-6.258,2.603c-2.438,0-4.542-0.886-6.315-2.658
		c-12.48-10.042-27.066-15.065-43.756-15.065c-19.571,0-36.279,6.922-50.125,20.771c-13.846,13.846-20.77,30.556-20.77,50.125
		c0,19.571,6.924,36.279,20.77,50.125c13.846,13.848,30.554,20.77,50.125,20.77c15.288,0,28.802-4.208,40.544-12.629v-40.542
		h-35.006c-2.436,0-4.524-0.865-6.258-2.603c-1.736-1.735-2.603-3.822-2.603-6.257c0-2.438,0.866-4.522,2.603-6.258
		c1.734-1.736,3.822-2.605,6.258-2.605h43.979c2.363,0,4.431,0.851,6.205,2.547c1.696,1.774,2.547,3.878,2.547,6.316v53.833H154.364
		z"/>
	<path fill="#FFFFFF" d="M173.639,26.682c0-2.438,0.867-4.522,2.601-6.258c1.736-1.735,3.824-2.604,6.26-2.604
		c2.438,0,4.524,0.869,6.26,2.604c1.732,1.736,2.601,3.82,2.601,6.258v150.652h8.863c2.438,0,4.524,0.871,6.258,2.604
		c1.736,1.735,2.604,3.821,2.604,6.258c0,2.438-0.869,4.524-2.604,6.259c-1.734,1.735-3.82,2.604-6.258,2.604H182.5
		c-2.436,0-4.523-0.867-6.26-2.604c-1.734-1.734-2.601-3.821-2.601-6.259V26.682z"/>
	<path fill="#FFFFFF" d="M333.154,176.447c-12.407,12.408-27.178,18.611-44.312,18.611c-17.133,0-31.754-6.055-43.865-18.168
		c-12.112-12.11-18.167-26.732-18.167-43.865c0-17.133,6.055-31.752,18.167-43.867c12.111-12.112,26.732-18.167,43.865-18.167
		c17.133,0,31.755,6.055,43.868,18.167c12.11,12.114,18.167,26.734,18.167,43.867v53.17c0,2.438-0.869,4.525-2.604,6.259
		c-1.736,1.735-3.822,2.604-6.261,2.604c-2.436,0-4.522-0.867-6.258-2.604c-1.736-1.733-2.603-3.821-2.603-6.259L333.154,176.447
		L333.154,176.447z M288.843,88.715c-12.259,0-22.707,4.321-31.349,12.961c-8.64,8.641-12.959,19.092-12.959,31.35
		c0,12.26,4.319,22.707,12.959,31.35c8.643,8.641,19.09,12.959,31.349,12.959c12.259,0,22.709-4.318,31.351-12.959
		c8.64-8.643,12.961-19.09,12.961-31.35c0-12.257-4.321-22.708-12.961-31.35C311.552,93.036,301.102,88.715,288.843,88.715z"/>
	<path fill="#FFFFFF" d="M386.325,186.195c0,2.438-0.869,4.525-2.604,6.259c-1.734,1.735-3.821,2.604-6.257,2.604
		c-2.438,0-4.525-0.867-6.26-2.604c-1.736-1.733-2.604-3.821-2.604-6.259V79.854c0-2.436,0.867-4.524,2.604-6.26
		c1.734-1.734,3.822-2.603,6.26-2.603c2.437,0,4.522,0.869,6.257,2.603c1.734,1.736,2.604,3.824,2.604,6.26v2.327
		c8.788-7.461,19.125-11.19,31.018-11.19c13.44,0,24.924,4.765,34.452,14.292c1.992,1.992,3.802,4.096,5.427,6.313
		c1.625-2.217,3.435-4.321,5.429-6.313c9.526-9.527,21.01-14.292,34.451-14.292c13.44,0,24.924,4.765,34.45,14.292
		c9.527,9.525,14.29,21.009,14.29,34.449v66.463c0,2.438-0.87,4.524-2.604,6.259c-1.734,1.735-3.822,2.604-6.26,2.604
		s-4.522-0.867-6.258-2.604c-1.736-1.733-2.603-3.821-2.603-6.259v-66.463c0-8.566-3.03-15.877-9.085-21.934
		c-6.057-6.053-13.366-9.083-21.934-9.083s-15.88,3.03-21.935,9.083c-6.055,6.057-9.082,13.368-9.082,21.934v66.463
		c0,2.438-0.871,4.524-2.605,6.259c-1.733,1.735-3.819,2.604-6.257,2.604c-2.436,0-4.523-0.867-6.26-2.604
		c-1.735-1.733-2.602-3.821-2.602-6.259v-66.463c0-8.566-3.03-15.877-9.085-21.934c-6.056-6.053-13.365-9.083-21.933-9.083
		c-8.568,0-15.879,3.03-21.934,9.083c-6.057,6.057-9.084,13.368-9.084,21.934L386.325,186.195L386.325,186.195z"/>
	<path fill="#FFFFFF" d="M581.29,239.368c0,2.438-0.869,4.522-2.604,6.259c-1.734,1.732-3.822,2.604-6.258,2.604
		c-2.438,0-4.524-0.869-6.26-2.604c-1.735-1.736-2.605-3.82-2.605-6.259V133.025c0-17.133,6.056-31.752,18.168-43.867
		c12.114-12.112,26.733-18.167,43.866-18.167c17.136,0,31.756,6.055,43.868,18.167c12.11,12.114,18.167,26.734,18.167,43.867
		c0,17.133-6.057,31.754-18.167,43.865c-12.112,12.113-26.732,18.168-43.868,18.168c-17.133,0-31.752-6.055-43.866-18.168
		c-0.146-0.146-0.295-0.293-0.44-0.443V239.368z M581.29,133.025c0,12.26,4.318,22.707,12.961,31.35
		c8.638,8.641,19.088,12.959,31.347,12.959c12.261,0,22.712-4.318,31.352-12.959c8.64-8.643,12.961-19.09,12.961-31.35
		c0-12.257-4.321-22.708-12.961-31.35c-8.64-8.64-19.091-12.961-31.352-12.961c-12.259,0-22.709,4.321-31.347,12.961
		C585.608,110.316,581.29,120.768,581.29,133.025z"/>
	<path fill="#FFFFFF" d="M705.354,26.682c0-2.438,0.87-4.522,2.605-6.258c1.734-1.735,3.82-2.604,6.258-2.604
		c2.437,0,4.521,0.869,6.26,2.604c1.734,1.736,2.603,3.82,2.603,6.258v150.652h8.864c2.436,0,4.521,0.871,6.259,2.604
		c1.732,1.735,2.603,3.821,2.603,6.258c0,2.438-0.869,4.524-2.603,6.259c-1.737,1.735-3.823,2.604-6.259,2.604h-17.727
		c-2.438,0-4.522-0.867-6.258-2.604c-1.735-1.734-2.605-3.821-2.605-6.259V26.682z"/>
	<path fill="#FFFFFF" d="M997.8,176.447c-0.148,0.15-0.294,0.297-0.443,0.443c-12.111,12.113-26.733,18.168-43.866,18.168
		c-17.134,0-31.753-6.055-43.865-18.168c-12.114-12.111-18.168-26.732-18.168-43.865c0-17.133,6.054-31.752,18.168-43.867
		c12.112-12.112,26.731-18.167,43.865-18.167c17.133,0,31.755,6.055,43.866,18.167c12.112,12.114,18.168,26.734,18.168,43.867
		v62.033c0,12.922-4.653,24.15-13.957,33.674c-12.998,12.998-28.69,19.496-47.08,19.496c-18.388,0-34.045-6.498-46.967-19.496
		c-4.803-4.725-8.716-9.857-11.742-15.396c-0.888-1.331-1.331-2.879-1.331-4.652c0-2.437,0.867-4.525,2.604-6.258
		c1.733-1.736,3.821-2.605,6.258-2.605c2.438,0,4.541,0.848,6.315,2.55c0.735,0.812,1.363,1.698,1.883,2.659
		c2.215,3.988,5.059,7.716,8.528,11.188c9.527,9.527,21.01,14.291,34.451,14.291c13.44,0,24.925-4.764,34.452-14.291
		c5.905-7.089,8.86-14.142,8.86-21.158L997.8,176.447L997.8,176.447z M953.489,88.715c-12.261,0-22.708,4.321-31.349,12.961
		c-8.642,8.641-12.961,19.092-12.961,31.35c0,12.26,4.319,22.707,12.961,31.35c8.641,8.641,19.088,12.959,31.349,12.959
		c12.259,0,22.71-4.318,31.351-12.959c8.642-8.643,12.96-19.09,12.96-31.35c0-12.257-4.318-22.708-12.96-31.35
		C976.199,93.036,965.748,88.715,953.489,88.715z"/>
	<g>
		<path fill="#BA9B61" d="M791.387,117.612c0,5.013-4.062,9.078-9.074,9.078l0,0c-5.015,0-9.078-4.065-9.078-9.078V71.057
			c0-5.013,4.063-9.078,9.078-9.078l0,0c5.014,0,9.074,4.065,9.074,9.078V117.612z"/>
		<path fill="#BA9B61" d="M859.883,117.612c0,5.013-4.063,9.078-9.077,9.078l0,0c-5.012,0-9.075-4.065-9.075-9.078V71.057
			c0-5.013,4.063-9.078,9.075-9.078l0,0c5.015,0,9.077,4.065,9.077,9.078V117.612z"/>
		<path fill="#BA9B61" d="M759.192,103.193v39.395c0,28.732,23.264,52.026,51.959,52.026h10.824c28.696,0,51.96-23.294,51.96-52.026
			v-39.214L759.192,103.193z M817,178.662c-4.531,0-8.201-3.67-8.201-8.199s3.67-8.199,8.201-8.199c4.527,0,8.195,3.67,8.195,8.199
			S821.527,178.662,817,178.662z"/>
	</g>
	<path fill="#FFFFFF" d="M181.653,159.902c0-4.941,4.007-8.949,8.949-8.949h9.443c4.941,0,8.949,4.008,8.949,8.949l0,0
		c0,4.942-4.007,8.951-8.949,8.951h-9.443C185.66,168.854,181.653,164.846,181.653,159.902L181.653,159.902z"/>
	<path fill="#FFFFFF" d="M181.653,133.279c0-4.942,4.007-8.948,8.949-8.948h9.443c4.941,0,8.949,4.005,8.949,8.948l0,0
		c0,4.943-4.007,8.949-8.949,8.949h-9.443C185.66,142.229,181.653,138.223,181.653,133.279L181.653,133.279z"/>
	<path fill="#FFFFFF" d="M181.653,106.657c0-4.943,4.007-8.949,8.949-8.949h9.443c4.941,0,8.949,4.005,8.949,8.949l0,0
		c0,4.941-4.007,8.949-8.949,8.949h-9.443C185.66,115.606,181.653,111.599,181.653,106.657L181.653,106.657z"/>
	<path fill="#FFFFFF" d="M181.653,80.035c0-4.942,4.007-8.949,8.949-8.949h9.443c4.941,0,8.949,4.007,8.949,8.949l0,0
		c0,4.941-4.007,8.949-8.949,8.949h-9.443C185.66,88.983,181.653,84.976,181.653,80.035L181.653,80.035z"/>
	<path fill="#FFFFFF" d="M181.653,53.412c0-4.943,4.007-8.949,8.949-8.949h9.443c4.941,0,8.949,4.005,8.949,8.949l0,0
		c0,4.941-4.007,8.948-8.949,8.948h-9.443C185.66,62.36,181.653,58.354,181.653,53.412L181.653,53.412z"/>
	<path fill="#FFFFFF" d="M174.622,26.79c0-4.943,4.007-8.95,8.95-8.95h16.474c4.941,0,8.949,4.007,8.949,8.95l0,0
		c0,4.939-4.007,8.948-8.949,8.948h-16.474c-4.943,0-7.192-4.009-7.192-8.948H174.622z"/>
</g>
</svg>
